<svg width="39" height="81" viewBox="0 0 39 81" fill="none" xmlns="http://www.w3.org/2000/svg">
<path d="M14.6602 74.2045L10.1221 69.6663V46.6568V23.6547H12.013H13.9039V45.9227V68.1907L15.5723 69.8517C16.4918 70.7712 17.263 71.4831 17.3001 71.4386C17.3297 71.4015 17.3446 59.8337 17.3297 45.7373L17.3149 20.0953L13.5109 20.0805L9.71427 20.0583L9.69202 18.3083C9.67719 16.9068 9.69202 16.5434 9.77359 16.4693C9.84774 16.4174 10.9674 16.3803 13.5776 16.3729L17.2778 16.3506L17.3149 16.0911C17.3372 15.9502 17.3446 15.1568 17.3297 14.3337L17.3075 12.8284H8.66871H0.0373535L0.0521838 10.9968L0.0744298 9.15784L8.67613 9.12077L17.2778 9.08369L17.3001 6.43644L17.3149 3.78178L15.5575 3.76695L13.7927 3.74471V1.89089V0.0370762H19.28H24.7672L24.7895 1.8464C24.8043 3.11441 24.7821 3.68538 24.7227 3.75212C24.656 3.83369 24.3001 3.85593 22.995 3.85593C21.816 3.85593 21.3266 3.87818 21.2598 3.94492C21.1931 4.01166 21.1708 4.68644 21.1708 6.54026V9.04661L29.8319 9.06145L38.4855 9.08369L38.5077 10.9598C38.5151 11.9831 38.5151 12.8358 38.5077 12.8432C38.4929 12.8581 34.5999 12.8803 29.8467 12.9025L21.2079 12.9396L21.1857 14.6303L21.1708 16.3136H24.9452C28.6083 16.3136 28.7344 16.321 28.8086 16.4545C28.8901 16.6176 28.9124 19.8655 28.8234 19.9915C28.7863 20.0509 27.674 20.0879 25.0861 20.1102C22.2683 20.1398 21.3711 20.1695 21.2821 20.2437C21.1857 20.3252 21.1708 23.0911 21.1708 45.9004C21.1708 59.9524 21.1931 71.4831 21.2227 71.5128C21.2524 71.5424 22.0384 70.8009 22.9653 69.874L24.656 68.1833V45.9227V23.6547H26.5469H28.4378V46.6568V69.6663L23.8997 74.2045C21.4007 76.7034 19.3244 78.75 19.28 78.75C19.2429 78.75 17.1592 76.7034 14.6602 74.2045Z" fill="#661C16" stroke="#661C16" stroke-width="0.0741526"/>
</svg>
